<svg xmlns="http://www.w3.org/2000/svg" xmlns:xlink="http://www.w3.org/1999/xlink" width="500" zoomAndPan="magnify" viewBox="0 0 375 374.999991" height="500" preserveAspectRatio="xMidYMid meet" version="1.0"><defs><g/><clipPath id="id1"><path d="M 38.246094 30 L 342.746094 30 L 342.746094 139.480469 L 38.246094 139.480469 Z M 38.246094 30 " clip-rule="nonzero"/></clipPath><clipPath id="id2"><path d="M 38.246094 236.195312 L 342.746094 236.195312 L 342.746094 345.554688 L 38.246094 345.554688 Z M 38.246094 236.195312 " clip-rule="nonzero"/></clipPath><clipPath id="id3"><path d="M 223.335938 180 L 374.777344 180 L 374.777344 209.796875 L 223.335938 209.796875 Z M 223.335938 180 " clip-rule="nonzero"/></clipPath><clipPath id="id4"><path d="M 0 166 L 155.25 166 L 155.25 194.28125 L 0 194.28125 Z M 0 166 " clip-rule="nonzero"/></clipPath></defs><g fill="#fafafa" fill-opacity="1"><g transform="translate(116.667686, 214.205103)"><g><path d="M 46.34375 -18.238281 C 45.988281 -18.324219 45.636719 -18.148438 45.550781 -17.886719 C 43.964844 -13.304688 39.03125 -1.410156 35.152344 -1.410156 C 32.597656 -1.410156 28.457031 -5.375 22.90625 -24.226562 C 35.503906 -32.246094 41.144531 -46.78125 40 -56.472656 C 39.46875 -61.320312 37.265625 -64.667969 33.832031 -65.8125 C 32.863281 -66.164062 31.894531 -66.339844 30.925781 -66.429688 L 30.132812 -66.429688 C 27.839844 -66.429688 25.636719 -65.722656 23.433594 -64.316406 C 19.382812 -61.761719 16.121094 -57.179688 14.097656 -52.683594 C 14.449219 -55.855469 14.800781 -59.203125 15.066406 -62.554688 C 15.242188 -64.050781 14.449219 -65.371094 13.214844 -66.164062 L 11.542969 -67.132812 C 10.925781 -67.488281 10.21875 -67.488281 9.691406 -67.132812 C 9.074219 -66.871094 8.808594 -66.339844 8.722656 -65.722656 C 8.371094 -53.039062 4.933594 -15.683594 0.0898438 -3.789062 C -0.0898438 -3.261719 0 -2.730469 0.441406 -2.289062 C 0.703125 -2.027344 1.144531 -1.851562 1.496094 -1.851562 C 1.675781 -1.851562 1.9375 -1.851562 2.113281 -1.9375 C 3.4375 -2.554688 4.582031 -3.171875 5.375 -3.964844 C 6.078125 -4.492188 6.519531 -5.285156 6.785156 -6.167969 C 7.929688 -10.308594 10.835938 -24.582031 13.304688 -45.109375 L 13.304688 -45.285156 C 13.921875 -51.097656 18.148438 -59.382812 24.140625 -63.167969 C 26.253906 -64.578125 28.367188 -65.195312 30.484375 -65.109375 C 33.214844 -65.019531 35.328125 -61.847656 35.503906 -57.53125 C 35.679688 -53.476562 34.886719 -39.207031 17.269531 -26.605469 C 17.003906 -26.429688 16.914062 -26.167969 17.003906 -25.902344 L 17.445312 -24.140625 C 19.558594 -16.121094 23.082031 -2.730469 29.867188 0.0898438 C 30.746094 0.441406 31.71875 0.617188 32.597656 0.617188 C 34.007812 0.617188 35.503906 0.175781 37.089844 -0.703125 C 37.179688 -0.703125 37.179688 -0.703125 37.265625 -0.792969 C 41.9375 -3.789062 46.253906 -15.859375 46.78125 -17.445312 C 46.871094 -17.796875 46.695312 -18.148438 46.34375 -18.238281 Z M 46.34375 -18.238281 "/></g></g></g><g fill="#fafafa" fill-opacity="1"><g transform="translate(162.126845, 214.205103)"><g><path d="M 43.609375 -18.0625 C 41.847656 -16.035156 38.765625 -15.945312 34.710938 -16.035156 C 36.738281 -20.351562 37.445312 -24.667969 36.738281 -28.546875 C 35.59375 -34.625 32.421875 -37.089844 30.042969 -37.972656 C 27.839844 -38.851562 25.636719 -38.851562 23.613281 -38.414062 C 31.71875 -45.550781 34.800781 -55.328125 33.65625 -60.789062 C 33.125 -63.433594 31.71875 -65.019531 29.691406 -65.285156 C 24.316406 -65.902344 18.589844 -59.203125 15.683594 -55.152344 C 13.480469 -52.15625 11.542969 -48.808594 9.957031 -45.550781 C 11.363281 -51.1875 13.128906 -56.5625 15.152344 -61.496094 C 15.859375 -63.167969 15.769531 -65.109375 14.800781 -66.695312 L 14.097656 -67.839844 C 13.742188 -68.457031 13.128906 -68.808594 12.421875 -68.808594 C 11.71875 -68.71875 11.101562 -68.28125 10.835938 -67.664062 C 3.875 -52.597656 -0.0898438 -28.898438 0 -2.644531 C 0 -0.882812 0.96875 0.617188 2.554688 1.234375 L 3.171875 1.496094 C 3.4375 1.585938 3.613281 1.675781 3.875 1.675781 C 4.230469 1.675781 4.582031 1.585938 4.933594 1.320312 C 5.460938 0.96875 5.726562 0.351562 5.726562 -0.265625 C 5.375 -13.304688 6.167969 -25.460938 8.105469 -36.5625 L 8.105469 -36.652344 C 9.691406 -44.050781 17.179688 -57.441406 24.140625 -62.199219 C 24.226562 -62.289062 28.015625 -63.433594 28.722656 -61.761719 C 29.953125 -58.589844 28.722656 -53.832031 25.285156 -48.722656 C 22.113281 -44.050781 17.53125 -39.644531 13.304688 -37.265625 C 12.949219 -37.089844 12.773438 -36.652344 12.773438 -36.296875 C 12.6875 -35.859375 12.949219 -35.417969 13.304688 -35.242188 L 14.535156 -34.535156 C 15.066406 -34.183594 15.683594 -34.007812 16.300781 -34.007812 C 16.914062 -34.007812 17.53125 -34.183594 18.148438 -34.535156 L 19.558594 -35.417969 C 19.648438 -35.417969 19.648438 -35.417969 19.648438 -35.503906 C 19.824219 -35.59375 20.085938 -35.679688 20.261719 -35.859375 C 22.203125 -37.003906 25.550781 -37.882812 28.632812 -37.089844 C 29.867188 -36.738281 30.925781 -35.417969 31.539062 -33.390625 C 32.773438 -29.074219 31.71875 -22.113281 27.046875 -16.121094 C 24.492188 -16.035156 21.671875 -15.683594 18.679688 -15.066406 C 13.304688 -13.832031 9.867188 -10.835938 8.546875 -7.753906 C 8.546875 -7.753906 8.457031 -7.664062 8.457031 -7.578125 C 7.929688 -6.34375 7.753906 -5.109375 7.929688 -3.964844 C 8.371094 -0.96875 10.75 0.882812 14.183594 0.882812 L 14.714844 0.882812 C 19.46875 0.617188 25.902344 -3.613281 30.746094 -9.691406 C 31.980469 -11.363281 33.125 -13.039062 34.007812 -14.800781 C 38.675781 -14.625 42.289062 -14.625 44.578125 -17.179688 C 44.84375 -17.445312 44.84375 -17.886719 44.578125 -18.148438 C 44.316406 -18.324219 43.875 -18.324219 43.609375 -18.0625 Z M 25.019531 -13.832031 C 14.273438 -3.171875 11.101562 -3.789062 10.394531 -4.230469 C 9.25 -4.933594 9.691406 -6.960938 9.691406 -7.222656 C 10.925781 -9.957031 14.007812 -12.6875 18.941406 -13.742188 C 21.410156 -14.359375 23.699219 -14.625 25.902344 -14.714844 C 25.550781 -14.449219 25.285156 -14.097656 25.019531 -13.832031 Z M 25.019531 -13.832031 "/></g></g></g><g fill="#fafafa" fill-opacity="1"><g transform="translate(205.383529, 214.205103)"><g><path d="M 46.34375 -18.238281 C 45.988281 -18.324219 45.636719 -18.148438 45.550781 -17.886719 C 43.964844 -13.304688 39.03125 -1.410156 35.152344 -1.410156 C 32.597656 -1.410156 28.457031 -5.375 22.90625 -24.226562 C 35.503906 -32.246094 41.144531 -46.78125 40 -56.472656 C 39.46875 -61.320312 37.265625 -64.667969 33.832031 -65.8125 C 32.863281 -66.164062 31.894531 -66.339844 30.925781 -66.429688 L 30.132812 -66.429688 C 27.839844 -66.429688 25.636719 -65.722656 23.433594 -64.316406 C 19.382812 -61.761719 16.121094 -57.179688 14.097656 -52.683594 C 14.449219 -55.855469 14.800781 -59.203125 15.066406 -62.554688 C 15.242188 -64.050781 14.449219 -65.371094 13.214844 -66.164062 L 11.542969 -67.132812 C 10.925781 -67.488281 10.21875 -67.488281 9.691406 -67.132812 C 9.074219 -66.871094 8.808594 -66.339844 8.722656 -65.722656 C 8.371094 -53.039062 4.933594 -15.683594 0.0898438 -3.789062 C -0.0898438 -3.261719 0 -2.730469 0.441406 -2.289062 C 0.703125 -2.027344 1.144531 -1.851562 1.496094 -1.851562 C 1.675781 -1.851562 1.9375 -1.851562 2.113281 -1.9375 C 3.4375 -2.554688 4.582031 -3.171875 5.375 -3.964844 C 6.078125 -4.492188 6.519531 -5.285156 6.785156 -6.167969 C 7.929688 -10.308594 10.835938 -24.582031 13.304688 -45.109375 L 13.304688 -45.285156 C 13.921875 -51.097656 18.148438 -59.382812 24.140625 -63.167969 C 26.253906 -64.578125 28.367188 -65.195312 30.484375 -65.109375 C 33.214844 -65.019531 35.328125 -61.847656 35.503906 -57.53125 C 35.679688 -53.476562 34.886719 -39.207031 17.269531 -26.605469 C 17.003906 -26.429688 16.914062 -26.167969 17.003906 -25.902344 L 17.445312 -24.140625 C 19.558594 -16.121094 23.082031 -2.730469 29.867188 0.0898438 C 30.746094 0.441406 31.71875 0.617188 32.597656 0.617188 C 34.007812 0.617188 35.503906 0.175781 37.089844 -0.703125 C 37.179688 -0.703125 37.179688 -0.703125 37.265625 -0.792969 C 41.9375 -3.789062 46.253906 -15.859375 46.78125 -17.445312 C 46.871094 -17.796875 46.695312 -18.148438 46.34375 -18.238281 Z M 46.34375 -18.238281 "/></g></g></g><g clip-path="url(#id1)"><path fill="#fafafa" d="M 190.496094 30.015625 C 234.832031 30.015625 274.972656 47.984375 304.027344 77.039062 C 321.371094 94.378906 334.765625 115.671875 342.746094 139.453125 L 340.40625 139.453125 C 332.507812 116.289062 319.394531 95.535156 302.460938 78.605469 C 273.804688 49.953125 234.21875 32.234375 190.496094 32.234375 C 146.769531 32.234375 107.183594 49.953125 78.527344 78.605469 C 61.59375 95.539062 48.480469 116.289062 40.582031 139.453125 L 38.246094 139.453125 C 46.222656 115.675781 59.617188 94.382812 76.960938 77.039062 C 106.015625 47.984375 146.15625 30.015625 190.496094 30.015625 Z M 190.496094 30.015625 " fill-opacity="1" fill-rule="evenodd"/></g><g clip-path="url(#id2)"><path fill="#fafafa" d="M 190.496094 345.660156 C 234.832031 345.660156 274.972656 327.691406 304.027344 298.636719 C 321.371094 281.296875 334.765625 260 342.746094 236.222656 L 340.40625 236.222656 C 332.507812 259.386719 319.394531 280.140625 302.460938 297.070312 C 273.804688 325.722656 234.21875 343.441406 190.496094 343.441406 C 146.769531 343.441406 107.183594 325.722656 78.527344 297.070312 C 61.59375 280.136719 48.480469 259.386719 40.582031 236.222656 L 38.246094 236.222656 C 46.222656 260 59.617188 281.292969 76.960938 298.636719 C 106.015625 327.691406 146.15625 345.660156 190.496094 345.660156 Z M 190.496094 345.660156 " fill-opacity="1" fill-rule="evenodd"/></g><g clip-path="url(#id3)"><path fill="#fafafa" d="M 217.40625 193.578125 C 219.835938 190.53125 224.691406 186.480469 230.277344 183.835938 C 235.863281 181.191406 242.191406 179.96875 249.296875 180.035156 C 256.402344 180.105469 264.28125 181.460938 273.898438 184.4375 C 283.515625 187.417969 294.867188 192.019531 305.011719 195.871094 C 315.160156 199.71875 324.113281 202.832031 332.65625 203.917969 C 341.199219 205.007812 349.347656 204.054688 355.527344 201.578125 C 361.6875 199.082031 365.886719 195.066406 368.363281 192.070312 C 370.84375 189.074219 371.601562 187.117188 372.445312 185.460938 C 373.273438 183.800781 374.179688 182.445312 374.5625 182.546875 C 374.941406 182.648438 374.808594 184.203125 374.148438 186.378906 C 373.488281 188.554688 372.296875 191.367188 369.175781 194.863281 C 366.050781 198.363281 360.960938 202.5625 355.757812 205.324219 C 350.550781 208.101562 345.199219 209.460938 337.863281 209.527344 C 330.507812 209.59375 321.171875 208.371094 311.753906 205.8125 C 302.335938 203.234375 292.851562 199.316406 283.433594 195.265625 C 274.015625 191.214844 264.664062 187.015625 255.625 185.359375 C 246.570312 183.703125 237.828125 184.589844 231.167969 187.316406 C 224.511719 190.046875 219.949219 194.648438 217.585938 197.175781 C 215.242188 199.71875 215.109375 200.1875 215.042969 199.417969 C 214.976562 198.648438 214.976562 196.621094 217.40625 193.578125 Z M 217.40625 193.578125 " fill-opacity="1" fill-rule="evenodd"/></g><g fill="#fafafa" fill-opacity="1"><g transform="translate(139.919439, 81.91028)"><g><path d="M 1.484375 -0.609375 L -3.390625 -12.4375 L 1.609375 -14.5 C 2.117188 -14.707031 2.628906 -14.789062 3.140625 -14.75 C 3.660156 -14.71875 4.148438 -14.585938 4.609375 -14.359375 C 5.066406 -14.128906 5.472656 -13.828125 5.828125 -13.453125 C 6.179688 -13.085938 6.453125 -12.679688 6.640625 -12.234375 C 6.816406 -11.796875 6.921875 -11.351562 6.953125 -10.90625 C 6.984375 -10.457031 6.953125 -10.023438 6.859375 -9.609375 C 6.773438 -9.203125 6.613281 -8.820312 6.375 -8.46875 C 6.144531 -8.125 5.84375 -7.828125 5.46875 -7.578125 L 10.25 -4.21875 L 8.921875 -3.671875 L 4.34375 -6.890625 L 0.84375 -5.453125 L 2.640625 -1.09375 Z M 0.421875 -6.5 L 4.296875 -8.09375 C 4.640625 -8.226562 4.921875 -8.425781 5.140625 -8.6875 C 5.359375 -8.957031 5.515625 -9.257812 5.609375 -9.59375 C 5.710938 -9.9375 5.75 -10.289062 5.71875 -10.65625 C 5.695312 -11.019531 5.613281 -11.382812 5.46875 -11.75 C 5.320312 -12.09375 5.113281 -12.398438 4.84375 -12.671875 C 4.582031 -12.953125 4.289062 -13.171875 3.96875 -13.328125 C 3.65625 -13.484375 3.320312 -13.570312 2.96875 -13.59375 C 2.625 -13.625 2.296875 -13.570312 1.984375 -13.4375 L -1.796875 -11.890625 Z M 0.421875 -6.5 "/></g></g></g><g fill="#fafafa" fill-opacity="1"><g transform="translate(156.722154, 75.519112)"><g><path d="M 9.640625 -3.53125 L 9.90625 -2.453125 L 1.5625 -0.390625 L -1.515625 -12.8125 L 6.65625 -14.828125 L 6.921875 -13.734375 L -0.03125 -12.015625 L 1.078125 -7.546875 L 7.140625 -9.046875 L 7.40625 -8.015625 L 1.34375 -6.515625 L 2.515625 -1.765625 Z M 9.640625 -3.53125 "/></g></g></g><g fill="#fafafa" fill-opacity="1"><g transform="translate(173.527215, 71.818929)"><g><path d="M 8 -11.234375 C 7.613281 -11.609375 7.109375 -11.890625 6.484375 -12.078125 C 5.859375 -12.265625 5.160156 -12.320312 4.390625 -12.25 C 3.273438 -12.144531 2.476562 -11.851562 2 -11.375 C 1.53125 -10.90625 1.332031 -10.304688 1.40625 -9.578125 C 1.4375 -9.191406 1.53125 -8.878906 1.6875 -8.640625 C 1.851562 -8.410156 2.09375 -8.222656 2.40625 -8.078125 C 2.71875 -7.929688 3.097656 -7.8125 3.546875 -7.71875 C 4.003906 -7.632812 4.546875 -7.554688 5.171875 -7.484375 C 5.878906 -7.410156 6.507812 -7.304688 7.0625 -7.171875 C 7.625 -7.046875 8.109375 -6.867188 8.515625 -6.640625 C 8.921875 -6.410156 9.242188 -6.113281 9.484375 -5.75 C 9.734375 -5.394531 9.890625 -4.925781 9.953125 -4.34375 C 10.003906 -3.757812 9.9375 -3.242188 9.75 -2.796875 C 9.570312 -2.347656 9.289062 -1.957031 8.90625 -1.625 C 8.519531 -1.300781 8.054688 -1.039062 7.515625 -0.84375 C 6.972656 -0.644531 6.367188 -0.515625 5.703125 -0.453125 C 3.722656 -0.253906 1.957031 -0.703125 0.40625 -1.796875 L 0.921875 -2.890625 C 1.179688 -2.671875 1.476562 -2.46875 1.8125 -2.28125 C 2.144531 -2.09375 2.515625 -1.9375 2.921875 -1.8125 C 3.328125 -1.695312 3.753906 -1.617188 4.203125 -1.578125 C 4.660156 -1.535156 5.132812 -1.535156 5.625 -1.578125 C 6.644531 -1.679688 7.414062 -1.941406 7.9375 -2.359375 C 8.46875 -2.773438 8.695312 -3.351562 8.625 -4.09375 C 8.582031 -4.488281 8.46875 -4.8125 8.28125 -5.0625 C 8.09375 -5.320312 7.828125 -5.53125 7.484375 -5.6875 C 7.148438 -5.84375 6.734375 -5.96875 6.234375 -6.0625 C 5.742188 -6.164062 5.175781 -6.257812 4.53125 -6.34375 C 3.84375 -6.4375 3.238281 -6.539062 2.71875 -6.65625 C 2.195312 -6.769531 1.753906 -6.9375 1.390625 -7.15625 C 1.023438 -7.382812 0.738281 -7.664062 0.53125 -8 C 0.320312 -8.332031 0.191406 -8.753906 0.140625 -9.265625 C 0.078125 -9.859375 0.132812 -10.390625 0.3125 -10.859375 C 0.488281 -11.335938 0.765625 -11.75 1.140625 -12.09375 C 1.515625 -12.445312 1.96875 -12.726562 2.5 -12.9375 C 3.039062 -13.15625 3.644531 -13.296875 4.3125 -13.359375 C 5.15625 -13.441406 5.921875 -13.390625 6.609375 -13.203125 C 7.296875 -13.015625 7.929688 -12.710938 8.515625 -12.296875 Z M 8 -11.234375 "/></g></g></g><g fill="#fafafa" fill-opacity="1"><g transform="translate(190.587329, 70.506853)"><g><path d="M 6.84375 -0.671875 C 7.644531 -0.617188 8.320312 -0.734375 8.875 -1.015625 C 9.425781 -1.296875 9.875 -1.671875 10.21875 -2.140625 C 10.5625 -2.617188 10.8125 -3.171875 10.96875 -3.796875 C 11.132812 -4.429688 11.238281 -5.070312 11.28125 -5.71875 L 11.640625 -12.171875 L 12.90625 -12.09375 L 12.546875 -5.640625 C 12.492188 -4.773438 12.347656 -3.960938 12.109375 -3.203125 C 11.878906 -2.441406 11.53125 -1.78125 11.0625 -1.21875 C 10.601562 -0.65625 10.019531 -0.21875 9.3125 0.09375 C 8.613281 0.40625 7.773438 0.53125 6.796875 0.46875 C 5.785156 0.414062 4.945312 0.1875 4.28125 -0.21875 C 3.613281 -0.625 3.085938 -1.140625 2.703125 -1.765625 C 2.316406 -2.390625 2.050781 -3.085938 1.90625 -3.859375 C 1.769531 -4.628906 1.726562 -5.425781 1.78125 -6.25 L 2.140625 -12.703125 L 3.390625 -12.625 L 3.03125 -6.171875 C 2.988281 -5.492188 3.015625 -4.835938 3.109375 -4.203125 C 3.203125 -3.566406 3.394531 -2.992188 3.6875 -2.484375 C 3.976562 -1.984375 4.378906 -1.566406 4.890625 -1.234375 C 5.398438 -0.898438 6.050781 -0.710938 6.84375 -0.671875 Z M 6.84375 -0.671875 "/></g></g></g><g fill="#fafafa" fill-opacity="1"><g transform="translate(210.180324, 72.039138)"><g><path d="M 12.59375 2.953125 L 14.984375 -7.265625 L 8.59375 -0.421875 L 7.875 -0.59375 L 5.171875 -9.5625 L 2.78125 0.65625 L 1.5625 0.359375 L 4.484375 -12.09375 L 5.75 -11.796875 L 8.609375 -2.125 L 15.5 -9.5 L 16.75 -9.21875 L 13.828125 3.234375 Z M 12.59375 2.953125 "/></g></g></g><g fill="#fafafa" fill-opacity="1"><g transform="translate(231.330045, 77.708761)"><g><path d="M 9.84375 2.875 L 9.421875 3.90625 L 1.484375 0.625 L 6.390625 -11.1875 L 14.171875 -7.96875 L 13.75 -6.9375 L 7.125 -9.6875 L 5.34375 -5.421875 L 11.109375 -3.015625 L 10.703125 -2.046875 L 4.9375 -4.453125 L 3.0625 0.0625 Z M 9.84375 2.875 "/></g></g></g><g fill="#fafafa" fill-opacity="1"><g transform="translate(64.976057, 235.874486)"><g><path d="M 7.21875 9.203125 C 6.769531 9.378906 6.320312 9.453125 5.875 9.421875 C 5.4375 9.390625 5.019531 9.28125 4.625 9.09375 C 4.226562 8.90625 3.875 8.640625 3.5625 8.296875 C 3.257812 7.953125 3.015625 7.550781 2.828125 7.09375 L 0.59375 1.5 L 12.484375 -3.234375 L 14.765625 2.484375 C 14.929688 2.898438 14.988281 3.304688 14.9375 3.703125 C 14.894531 4.109375 14.773438 4.484375 14.578125 4.828125 C 14.390625 5.171875 14.140625 5.476562 13.828125 5.75 C 13.515625 6.03125 13.175781 6.242188 12.8125 6.390625 C 12.207031 6.628906 11.59375 6.695312 10.96875 6.59375 C 10.351562 6.488281 9.820312 6.21875 9.375 5.78125 C 9.445312 6.539062 9.285156 7.226562 8.890625 7.84375 C 8.503906 8.457031 7.945312 8.910156 7.21875 9.203125 Z M 6.953125 7.96875 C 7.242188 7.851562 7.503906 7.6875 7.734375 7.46875 C 7.972656 7.257812 8.15625 7.019531 8.28125 6.75 C 8.414062 6.488281 8.492188 6.207031 8.515625 5.90625 C 8.546875 5.601562 8.503906 5.304688 8.390625 5.015625 L 6.578125 0.453125 L 2.078125 2.25 L 3.84375 6.6875 C 3.96875 6.988281 4.144531 7.242188 4.375 7.453125 C 4.601562 7.660156 4.859375 7.820312 5.140625 7.9375 C 5.421875 8.0625 5.71875 8.125 6.03125 8.125 C 6.351562 8.132812 6.660156 8.082031 6.953125 7.96875 Z M 11.921875 -1.671875 L 7.53125 0.078125 L 9.15625 4.171875 C 9.269531 4.460938 9.441406 4.707031 9.671875 4.90625 C 9.898438 5.101562 10.144531 5.25 10.40625 5.34375 C 10.675781 5.445312 10.960938 5.492188 11.265625 5.484375 C 11.578125 5.484375 11.878906 5.425781 12.171875 5.3125 C 12.460938 5.1875 12.722656 5.023438 12.953125 4.828125 C 13.191406 4.628906 13.367188 4.40625 13.484375 4.15625 C 13.609375 3.90625 13.679688 3.632812 13.703125 3.34375 C 13.734375 3.0625 13.695312 2.785156 13.59375 2.515625 Z M 11.921875 -1.671875 "/></g></g></g><g fill="#fafafa" fill-opacity="1"><g transform="translate(73.029661, 254.469325)"><g><path d="M 4.390625 5.296875 C 4.804688 5.992188 5.28125 6.488281 5.8125 6.78125 C 6.34375 7.082031 6.90625 7.242188 7.5 7.265625 C 8.09375 7.285156 8.691406 7.1875 9.296875 6.96875 C 9.910156 6.75 10.5 6.472656 11.0625 6.140625 L 16.59375 2.828125 L 17.234375 3.921875 L 11.703125 7.234375 C 10.953125 7.671875 10.191406 8.003906 9.421875 8.234375 C 8.660156 8.472656 7.914062 8.554688 7.1875 8.484375 C 6.46875 8.421875 5.785156 8.179688 5.140625 7.765625 C 4.492188 7.359375 3.921875 6.734375 3.421875 5.890625 C 2.898438 5.023438 2.617188 4.203125 2.578125 3.421875 C 2.546875 2.640625 2.679688 1.914062 2.984375 1.25 C 3.285156 0.582031 3.71875 -0.0234375 4.28125 -0.578125 C 4.84375 -1.128906 5.476562 -1.613281 6.1875 -2.03125 L 11.71875 -5.34375 L 12.359375 -4.265625 L 6.828125 -0.953125 C 6.242188 -0.609375 5.710938 -0.21875 5.234375 0.21875 C 4.753906 0.65625 4.382812 1.132812 4.125 1.65625 C 3.863281 2.1875 3.738281 2.753906 3.75 3.359375 C 3.769531 3.972656 3.984375 4.617188 4.390625 5.296875 Z M 4.390625 5.296875 "/></g></g></g><g fill="#fafafa" fill-opacity="1"><g transform="translate(84.817554, 272.627211)"><g><path d="M 1 1.265625 L 11.046875 -6.65625 L 11.8125 -5.671875 L 1.765625 2.25 Z M 1 1.265625 "/></g></g></g><g fill="#fafafa" fill-opacity="1"><g transform="translate(92.753962, 282.226982)"><g><path d="M 1.140625 1.140625 L 10.203125 -7.890625 L 11.078125 -7 L 2.796875 1.25 L 8.015625 6.46875 L 7.234375 7.25 Z M 1.140625 1.140625 "/></g></g></g><g fill="#fafafa" fill-opacity="1"><g transform="translate(106.336839, 295.09357)"><g><path d="M 1.296875 0.953125 L 8.90625 -9.34375 L 12.390625 -6.765625 C 13.203125 -6.160156 13.816406 -5.492188 14.234375 -4.765625 C 14.648438 -4.035156 14.890625 -3.285156 14.953125 -2.515625 C 15.015625 -1.742188 14.921875 -0.972656 14.671875 -0.203125 C 14.429688 0.566406 14.050781 1.304688 13.53125 2.015625 C 12.945312 2.796875 12.304688 3.414062 11.609375 3.875 C 10.910156 4.34375 10.179688 4.644531 9.421875 4.78125 C 8.660156 4.914062 7.882812 4.878906 7.09375 4.671875 C 6.300781 4.460938 5.53125 4.082031 4.78125 3.53125 Z M 12.515625 1.265625 C 12.972656 0.648438 13.300781 0.0195312 13.5 -0.625 C 13.707031 -1.28125 13.785156 -1.914062 13.734375 -2.53125 C 13.679688 -3.15625 13.488281 -3.75 13.15625 -4.3125 C 12.820312 -4.882812 12.34375 -5.398438 11.71875 -5.859375 L 9.234375 -7.6875 L 2.953125 0.8125 L 5.4375 2.640625 C 6.082031 3.117188 6.726562 3.425781 7.375 3.5625 C 8.019531 3.707031 8.644531 3.707031 9.25 3.5625 C 9.863281 3.425781 10.445312 3.160156 11 2.765625 C 11.5625 2.367188 12.066406 1.867188 12.515625 1.265625 Z M 12.515625 1.265625 "/></g></g></g><g fill="#fafafa" fill-opacity="1"><g transform="translate(123.702569, 307.06291)"><g><path d="M 9.546875 3.765625 L 9.03125 4.75 L 1.421875 0.75 L 7.375 -10.578125 L 14.828125 -6.65625 L 14.3125 -5.65625 L 7.96875 -9 L 5.828125 -4.921875 L 11.359375 -2 L 10.859375 -1.0625 L 5.328125 -3.984375 L 3.046875 0.34375 Z M 9.546875 3.765625 "/></g></g></g><g fill="#fafafa" fill-opacity="1"><g transform="translate(140.916073, 315.470514)"><g><path d="M 1.515625 0.53125 L 5.75 -11.546875 L 10.859375 -9.765625 C 11.378906 -9.578125 11.816406 -9.296875 12.171875 -8.921875 C 12.523438 -8.546875 12.796875 -8.125 12.984375 -7.65625 C 13.179688 -7.1875 13.285156 -6.695312 13.296875 -6.1875 C 13.316406 -5.675781 13.25 -5.1875 13.09375 -4.71875 C 12.9375 -4.28125 12.722656 -3.882812 12.453125 -3.53125 C 12.179688 -3.175781 11.867188 -2.875 11.515625 -2.625 C 11.171875 -2.375 10.796875 -2.195312 10.390625 -2.09375 C 9.984375 -1.988281 9.554688 -1.96875 9.109375 -2.03125 L 10.453125 3.65625 L 9.109375 3.1875 L 7.828125 -2.265625 L 4.265625 -3.515625 L 2.703125 0.9375 Z M 4.640625 -4.578125 L 8.59375 -3.1875 C 8.945312 -3.0625 9.289062 -3.023438 9.625 -3.078125 C 9.957031 -3.128906 10.269531 -3.25 10.5625 -3.4375 C 10.863281 -3.625 11.128906 -3.859375 11.359375 -4.140625 C 11.597656 -4.429688 11.78125 -4.757812 11.90625 -5.125 C 12.03125 -5.476562 12.082031 -5.847656 12.0625 -6.234375 C 12.039062 -6.617188 11.960938 -6.972656 11.828125 -7.296875 C 11.703125 -7.628906 11.515625 -7.921875 11.265625 -8.171875 C 11.015625 -8.421875 10.726562 -8.601562 10.40625 -8.71875 L 6.5625 -10.078125 Z M 4.640625 -4.578125 "/></g></g></g><g fill="#fafafa" fill-opacity="1"><g transform="translate(172.187647, 323.762615)"><g><path d="M 10.234375 0.9375 L 8.921875 -0.75 C 8.359375 -0.25 7.738281 0.125 7.0625 0.375 C 6.382812 0.625 5.664062 0.710938 4.90625 0.640625 C 4.34375 0.585938 3.816406 0.453125 3.328125 0.234375 C 2.847656 0.015625 2.441406 -0.257812 2.109375 -0.59375 C 1.773438 -0.9375 1.519531 -1.328125 1.34375 -1.765625 C 1.164062 -2.203125 1.097656 -2.679688 1.140625 -3.203125 C 1.179688 -3.640625 1.289062 -4.03125 1.46875 -4.375 C 1.644531 -4.726562 1.867188 -5.039062 2.140625 -5.3125 C 2.421875 -5.582031 2.734375 -5.832031 3.078125 -6.0625 C 3.429688 -6.300781 3.796875 -6.523438 4.171875 -6.734375 C 3.890625 -7.117188 3.644531 -7.457031 3.4375 -7.75 C 3.238281 -8.050781 3.082031 -8.320312 2.96875 -8.5625 C 2.851562 -8.8125 2.773438 -9.046875 2.734375 -9.265625 C 2.703125 -9.484375 2.695312 -9.707031 2.71875 -9.9375 C 2.757812 -10.332031 2.875 -10.691406 3.0625 -11.015625 C 3.25 -11.347656 3.5 -11.625 3.8125 -11.84375 C 4.125 -12.070312 4.484375 -12.238281 4.890625 -12.34375 C 5.296875 -12.457031 5.726562 -12.492188 6.1875 -12.453125 C 6.59375 -12.410156 6.96875 -12.3125 7.3125 -12.15625 C 7.664062 -12.007812 7.96875 -11.8125 8.21875 -11.5625 C 8.46875 -11.3125 8.65625 -11.019531 8.78125 -10.6875 C 8.90625 -10.363281 8.953125 -10.019531 8.921875 -9.65625 C 8.890625 -9.28125 8.78125 -8.945312 8.59375 -8.65625 C 8.414062 -8.375 8.1875 -8.101562 7.90625 -7.84375 C 7.632812 -7.59375 7.316406 -7.359375 6.953125 -7.140625 C 6.597656 -6.921875 6.222656 -6.703125 5.828125 -6.484375 L 9.0625 -2.4375 C 9.34375 -2.863281 9.570312 -3.335938 9.75 -3.859375 C 9.925781 -4.378906 10.039062 -4.925781 10.09375 -5.5 L 11.140625 -5.40625 C 11.066406 -4.675781 10.90625 -3.988281 10.65625 -3.34375 C 10.40625 -2.695312 10.085938 -2.113281 9.703125 -1.59375 L 11.859375 1.09375 Z M 5.125 -0.34375 C 5.726562 -0.289062 6.296875 -0.367188 6.828125 -0.578125 C 7.367188 -0.785156 7.859375 -1.097656 8.296875 -1.515625 L 4.8125 -5.9375 C 4.132812 -5.550781 3.5625 -5.132812 3.09375 -4.6875 C 2.632812 -4.25 2.375 -3.707031 2.3125 -3.0625 C 2.28125 -2.664062 2.335938 -2.304688 2.484375 -1.984375 C 2.628906 -1.671875 2.832031 -1.394531 3.09375 -1.15625 C 3.363281 -0.914062 3.675781 -0.726562 4.03125 -0.59375 C 4.382812 -0.46875 4.75 -0.382812 5.125 -0.34375 Z M 3.84375 -9.859375 C 3.832031 -9.722656 3.84375 -9.578125 3.875 -9.421875 C 3.90625 -9.273438 3.96875 -9.101562 4.0625 -8.90625 C 4.164062 -8.71875 4.304688 -8.492188 4.484375 -8.234375 C 4.660156 -7.972656 4.894531 -7.660156 5.1875 -7.296875 C 5.925781 -7.679688 6.53125 -8.050781 7 -8.40625 C 7.46875 -8.769531 7.726562 -9.207031 7.78125 -9.71875 C 7.820312 -10.1875 7.679688 -10.585938 7.359375 -10.921875 C 7.035156 -11.253906 6.613281 -11.445312 6.09375 -11.5 C 5.789062 -11.519531 5.503906 -11.492188 5.234375 -11.421875 C 4.972656 -11.347656 4.742188 -11.234375 4.546875 -11.078125 C 4.347656 -10.929688 4.1875 -10.753906 4.0625 -10.546875 C 3.945312 -10.347656 3.875 -10.117188 3.84375 -9.859375 Z M 3.84375 -9.859375 "/></g></g></g><g fill="#fafafa" fill-opacity="1"><g transform="translate(204.786712, 324.196475)"><g><path d="M 1.59375 -0.25 L -0.375 -12.890625 L 4.96875 -13.71875 C 5.507812 -13.800781 6.023438 -13.765625 6.515625 -13.609375 C 7.003906 -13.453125 7.441406 -13.210938 7.828125 -12.890625 C 8.222656 -12.566406 8.550781 -12.179688 8.8125 -11.734375 C 9.082031 -11.285156 9.253906 -10.816406 9.328125 -10.328125 C 9.398438 -9.867188 9.394531 -9.414062 9.3125 -8.96875 C 9.238281 -8.53125 9.109375 -8.125 8.921875 -7.75 C 8.734375 -7.375 8.484375 -7.039062 8.171875 -6.75 C 7.859375 -6.457031 7.492188 -6.238281 7.078125 -6.09375 L 10.953125 -1.703125 L 9.546875 -1.484375 L 5.84375 -5.671875 L 2.109375 -5.09375 L 2.828125 -0.4375 Z M 1.9375 -6.21875 L 6.078125 -6.859375 C 6.441406 -6.921875 6.757812 -7.050781 7.03125 -7.25 C 7.3125 -7.457031 7.535156 -7.710938 7.703125 -8.015625 C 7.878906 -8.328125 8 -8.664062 8.0625 -9.03125 C 8.125 -9.394531 8.128906 -9.765625 8.078125 -10.140625 C 8.015625 -10.515625 7.882812 -10.863281 7.6875 -11.1875 C 7.5 -11.507812 7.269531 -11.785156 7 -12.015625 C 6.726562 -12.242188 6.421875 -12.410156 6.078125 -12.515625 C 5.734375 -12.617188 5.394531 -12.644531 5.0625 -12.59375 L 1.03125 -11.96875 Z M 1.9375 -6.21875 "/></g></g></g><g fill="#fafafa" fill-opacity="1"><g transform="translate(224.389605, 320.509529)"><g><path d="M 9.421875 -4.09375 L 9.75 -3.03125 L 1.53125 -0.484375 L -2.265625 -12.703125 L 5.78125 -15.203125 L 6.109375 -14.125 L -0.734375 -11.984375 L 0.640625 -7.59375 L 6.609375 -9.453125 L 6.921875 -8.4375 L 0.953125 -6.578125 L 2.40625 -1.90625 Z M 9.421875 -4.09375 "/></g></g></g><g fill="#fafafa" fill-opacity="1"><g transform="translate(242.519203, 314.277232)"><g><path d="M -4.1875 -12.1875 L 4.828125 -4.078125 L 4.046875 -16.171875 L 5.21875 -16.75 L 6 -2.90625 L 5 -2.421875 L -5.375 -11.625 Z M -4.1875 -12.1875 "/></g></g></g><g fill="#fafafa" fill-opacity="1"><g transform="translate(260.40503, 304.792828)"><g><path d="M 1.34375 -0.875 L -5.609375 -11.609375 L -4.546875 -12.28125 L 2.40625 -1.546875 Z M 1.34375 -0.875 "/></g></g></g><g fill="#fafafa" fill-opacity="1"><g transform="translate(270.715579, 297.780633)"><g><path d="M 7.140625 -7.375 L 7.84375 -6.515625 L 1.234375 -1.03125 L -6.9375 -10.875 L -0.453125 -16.25 L 0.265625 -15.390625 L -5.25 -10.8125 L -2.3125 -7.265625 L 2.484375 -11.265625 L 3.171875 -10.4375 L -1.625 -6.4375 L 1.5 -2.6875 Z M 7.140625 -7.375 "/></g></g></g><g fill="#fafafa" fill-opacity="1"><g transform="translate(285.361886, 285.100066)"><g><path d="M -5.5625 -13.09375 L -4.796875 -14.015625 L -0.15625 -12.453125 L -2.453125 -16.765625 L -1.671875 -17.703125 L 1.0625 -12.484375 L 7.046875 -10.59375 L 1.390625 -21.46875 L 2.265625 -22.5 L 8.53125 -10.09375 L 7.8125 -9.25 L 1.25 -11.28125 L 4.34375 -5.125 L 3.625 -4.296875 L -9.625 -8.4375 L -8.75 -9.453125 L 2.90625 -5.6875 L 0.046875 -11.28125 Z M -5.5625 -13.09375 "/></g></g></g><g fill="#fafafa" fill-opacity="1"><g transform="translate(302.079574, 263.649215)"><g><path d="M 4.171875 -9.390625 L 5.125 -8.828125 L 0.8125 -1.390625 L -10.25 -7.8125 L -6.03125 -15.09375 L -5.0625 -14.53125 L -8.65625 -8.328125 L -4.671875 -6.015625 L -1.53125 -11.421875 L -0.609375 -10.890625 L -3.75 -5.484375 L 0.484375 -3.03125 Z M 4.171875 -9.390625 "/></g></g></g><g fill="#fafafa" fill-opacity="1"><g transform="translate(311.200744, 246.80498)"><g><path d="M 0.59375 -1.5 L -11.296875 -6.234375 L -9.296875 -11.25 C -9.085938 -11.757812 -8.789062 -12.179688 -8.40625 -12.515625 C -8.019531 -12.859375 -7.585938 -13.117188 -7.109375 -13.296875 C -6.628906 -13.472656 -6.132812 -13.554688 -5.625 -13.546875 C -5.113281 -13.546875 -4.628906 -13.457031 -4.171875 -13.28125 C -3.734375 -13.101562 -3.34375 -12.867188 -3 -12.578125 C -2.65625 -12.296875 -2.367188 -11.972656 -2.140625 -11.609375 C -1.910156 -11.253906 -1.75 -10.875 -1.65625 -10.46875 C -1.570312 -10.0625 -1.570312 -9.640625 -1.65625 -9.203125 L 4.09375 -10.296875 L 3.5625 -8.96875 L -1.9375 -7.921875 L -3.328125 -4.40625 L 1.0625 -2.65625 Z M -4.375 -4.8125 L -2.828125 -8.703125 C -2.691406 -9.054688 -2.640625 -9.398438 -2.671875 -9.734375 C -2.710938 -10.078125 -2.820312 -10.398438 -3 -10.703125 C -3.175781 -11.003906 -3.40625 -11.273438 -3.6875 -11.515625 C -3.96875 -11.765625 -4.285156 -11.960938 -4.640625 -12.109375 C -4.992188 -12.242188 -5.359375 -12.3125 -5.734375 -12.3125 C -6.117188 -12.3125 -6.472656 -12.25 -6.796875 -12.125 C -7.128906 -12.007812 -7.425781 -11.832031 -7.6875 -11.59375 C -7.957031 -11.351562 -8.15625 -11.078125 -8.28125 -10.765625 L -9.78125 -6.96875 Z M -4.375 -4.8125 "/></g></g></g><g clip-path="url(#id4)"><path fill="#fafafa" d="M 2.3125 178.871094 C 4.671875 175.976562 9.394531 172.128906 14.820312 169.617188 C 20.25 167.105469 26.398438 165.945312 33.304688 166.007812 C 40.210938 166.074219 47.871094 167.359375 57.214844 170.191406 C 66.5625 173.019531 77.59375 177.394531 87.453125 181.050781 C 97.3125 184.707031 106.015625 187.664062 114.316406 188.699219 C 122.621094 189.730469 130.535156 188.824219 136.542969 186.472656 C 142.53125 184.101562 146.609375 180.285156 149.019531 177.441406 C 151.429688 174.59375 152.167969 172.734375 152.984375 171.160156 C 153.789062 169.585938 154.671875 168.296875 155.042969 168.394531 C 155.410156 168.488281 155.28125 169.96875 154.640625 172.035156 C 153.996094 174.101562 152.839844 176.773438 149.804688 180.097656 C 146.769531 183.417969 141.824219 187.410156 136.765625 190.035156 C 131.707031 192.671875 126.507812 193.960938 119.375 194.023438 C 112.230469 194.089844 103.15625 192.925781 94.003906 190.496094 C 84.851562 188.046875 75.632812 184.324219 66.480469 180.476562 C 57.328125 176.628906 48.238281 172.640625 39.453125 171.066406 C 30.65625 169.492188 22.160156 170.332031 15.6875 172.925781 C 9.21875 175.515625 4.785156 179.890625 2.488281 182.289062 C 0.207031 184.707031 0.0820312 185.152344 0.015625 184.421875 C -0.046875 183.691406 -0.046875 181.765625 2.3125 178.871094 Z M 2.3125 178.871094 " fill-opacity="1" fill-rule="evenodd"/></g></svg>